<?xml version="1.0" standalone="no"?>
<!DOCTYPE svg PUBLIC "-//W3C//DTD SVG 20010904//EN"
 "http://www.w3.org/TR/2001/REC-SVG-20010904/DTD/svg10.dtd">
<svg version="1.0" xmlns="http://www.w3.org/2000/svg"
 width="366.000000pt" height="95.000000pt" viewBox="0 0 366.000000 95.000000"
 preserveAspectRatio="xMidYMid meet">
<metadata>
Created by potrace 1.16, written by Peter Selinger 2001-2019
</metadata>
<g transform="translate(0.000000,95.000000) scale(0.100000,-0.100000)"
fill="#000000" stroke="none">
<path d="M1287 834 c-4 -4 -7 -65 -7 -135 l0 -127 -37 19 c-71 36 -165 14
-209 -50 l-24 -36 0 48 0 47 -60 0 -60 0 0 -94 c0 -140 -19 -175 -91 -164 -37
5 -49 43 -49 156 l0 102 -90 0 -90 0 0 65 0 65 -60 0 -60 0 0 -66 0 -66 -89 7
c-77 6 -95 4 -134 -13 -52 -23 -67 -45 -67 -97 0 -42 31 -78 88 -102 49 -20
62 -31 55 -49 -7 -20 -52 -17 -90 5 l-32 20 -21 -37 c-15 -25 -19 -41 -13 -51
22 -35 131 -51 205 -31 51 15 78 52 78 107 0 55 -36 96 -97 112 -22 6 -46 18
-52 25 -19 23 17 38 62 25 19 -5 39 -9 44 -8 4 1 20 1 36 0 l27 -1 0 -77 c0
-106 14 -149 53 -173 35 -22 91 -26 132 -10 21 8 25 14 19 33 l-6 22 23 -21
c37 -33 94 -47 170 -42 80 6 127 30 150 76 l17 33 22 -37 c42 -68 140 -92 215
-54 47 24 45 24 45 5 0 -12 13 -15 60 -15 l60 0 1 243 c0 177 3 236 11 220 15
-31 58 -47 90 -32 58 26 56 105 -3 129 -24 10 -33 10 -54 -4 -15 -10 -29 -25
-33 -34 -5 -12 -9 -5 -12 23 l-5 40 -55 3 c-31 2 -59 0 -63 -4z m-33 -346 c15
-13 29 -37 32 -55 5 -27 1 -37 -25 -64 -27 -26 -37 -30 -63 -25 -60 12 -90 63
-66 114 13 27 50 52 80 52 9 0 28 -10 42 -22z"/>
<path d="M3130 621 l0 -219 -28 28 c-16 16 -47 33 -69 39 -22 6 -46 18 -52 25
-19 23 18 38 60 26 47 -14 47 -14 64 20 22 42 19 48 -22 59 -82 23 -187 -1
-212 -47 -33 -61 -1 -127 77 -159 49 -20 62 -31 55 -49 -7 -20 -52 -17 -90 5
l-32 20 -21 -37 c-26 -43 -19 -60 31 -78 76 -28 184 -11 219 33 l20 26 0 -32
0 -31 60 0 60 0 0 108 c0 94 3 111 20 129 40 43 91 37 110 -13 6 -14 10 -70
10 -125 l0 -99 61 0 61 0 -4 137 c-4 156 -10 172 -74 203 -51 25 -100 25 -142
0 -18 -11 -35 -20 -37 -20 -3 0 -5 61 -5 135 l0 135 -60 0 -60 0 0 -219z"/>
<path d="M1665 596 c-22 -8 -59 -35 -82 -61 l-43 -47 0 56 0 56 -60 0 -60 0 0
-175 0 -175 60 0 59 0 3 57 3 58 22 -38 c60 -101 246 -117 334 -28 86 85 72
209 -30 277 -50 33 -145 42 -206 20z m136 -115 c44 -44 33 -108 -21 -131 -55
-23 -110 14 -110 73 0 80 75 113 131 58z"/>
<path d="M2250 599 c-13 -6 -33 -17 -42 -26 -17 -15 -18 -15 -18 5 0 20 -5 22
-60 22 l-60 0 2 -262 3 -263 58 -3 57 -3 0 106 0 105 40 -20 c76 -39 172 -14
219 55 l24 36 12 -28 c16 -37 41 -58 89 -73 49 -16 161 -8 203 14 59 30 68 55
71 203 l4 133 -61 0 -61 0 0 -94 c0 -140 -19 -175 -91 -164 -37 5 -49 43 -49
156 l0 102 -60 0 -60 0 0 -47 0 -48 -21 32 c-37 58 -133 88 -199 62z m82 -116
c23 -21 24 -84 1 -112 -10 -11 -32 -24 -50 -27 -27 -5 -37 -1 -63 24 -18 19
-30 41 -30 57 0 16 12 38 30 57 26 25 36 29 62 24 18 -3 40 -14 50 -23z"/>
</g>
</svg>
